<?xml version="1.0" encoding="UTF-8"?>
<svg xmlns="http://www.w3.org/2000/svg" xmlns:xlink="http://www.w3.org/1999/xlink" width="841.679993pt" height="595.200012pt" viewBox="0 0 841.679993 595.200012" version="1.2">
<g id="surface1">
<path style="fill:none;stroke-width:0.24;stroke-linecap:round;stroke-linejoin:round;stroke:rgb(0%,0%,0%);stroke-opacity:1;stroke-miterlimit:10;" d="M 446.311165 240.924947 L 487.225458 240.924947 L 487.225458 194.824005 L 446.311165 194.824005 Z M 446.311165 240.924947 " transform="matrix(0.998658,0,0,0.998658,0.405088,0)"/>
<path style="fill:none;stroke-width:0.24;stroke-linecap:round;stroke-linejoin:round;stroke:rgb(0%,0%,0%);stroke-opacity:1;stroke-miterlimit:10;" d="M 458.980515 462.538817 L 460.764159 462.538817 L 460.764159 468.691607 L 458.980515 468.691607 Z M 458.980515 462.538817 " transform="matrix(0.998658,0,0,0.998658,0.405088,0)"/>
<path style="fill:none;stroke-width:0.24;stroke-linecap:round;stroke-linejoin:round;stroke:rgb(0%,0%,0%);stroke-opacity:1;stroke-miterlimit:10;" d="M 446.232935 353.032456 L 483.99847 353.032456 L 483.99847 316.808052 L 446.232935 316.808052 Z M 446.232935 353.032456 " transform="matrix(0.998658,0,0,0.998658,0.405088,0)"/>
<path style="fill:none;stroke-width:0.24;stroke-linecap:round;stroke-linejoin:round;stroke:rgb(0%,0%,0%);stroke-opacity:1;stroke-miterlimit:10;" d="M 249.957764 506.261567 L 249.957764 525.314484 " transform="matrix(0.998658,0,0,0.998658,0.405088,0)"/>
<path style="fill:none;stroke-width:0.24;stroke-linecap:round;stroke-linejoin:round;stroke:rgb(0%,0%,0%);stroke-opacity:1;stroke-miterlimit:10;" d="M 550.392276 506.179425 L 550.392276 516.748299 L 540.003331 525.447475 L 360.187753 524.680821 " transform="matrix(0.998658,0,0,0.998658,0.405088,0)"/>
<path style="fill:none;stroke-width:0.24;stroke-linecap:round;stroke-linejoin:round;stroke:rgb(0%,0%,0%);stroke-opacity:1;stroke-miterlimit:10;" d="M 486.955565 405.685161 L 486.955565 420.896985 " transform="matrix(0.998658,0,0,0.998658,0.405088,0)"/>
<path style="fill:none;stroke-width:0.24;stroke-linecap:round;stroke-linejoin:round;stroke:rgb(0%,0%,0%);stroke-opacity:1;stroke-miterlimit:10;" d="M 463.111059 436.296562 L 464.894703 436.296562 L 464.894703 430.13986 L 463.111059 430.13986 Z M 463.111059 436.296562 " transform="matrix(0.998658,0,0,0.998658,0.405088,0)"/>
<path style="fill:none;stroke-width:0.24;stroke-linecap:round;stroke-linejoin:round;stroke:rgb(0%,0%,0%);stroke-opacity:1;stroke-miterlimit:10;" d="M 281.238032 264.104497 L 497.743482 264.104497 L 497.743482 240.924947 L 281.238032 240.924947 Z M 281.238032 264.104497 " transform="matrix(0.998658,0,0,0.998658,0.405088,0)"/>
<path style="fill:none;stroke-width:0.24;stroke-linecap:round;stroke-linejoin:round;stroke:rgb(0%,0%,0%);stroke-opacity:1;stroke-miterlimit:10;" d="M 510.604495 455.53332 L 518.501814 455.53332 L 518.501814 442.719245 L 510.604495 442.719245 Z M 510.604495 455.53332 " transform="matrix(0.998658,0,0,0.998658,0.405088,0)"/>
<path style="fill:none;stroke-width:0.24;stroke-linecap:round;stroke-linejoin:round;stroke:rgb(0%,0%,0%);stroke-opacity:1;stroke-miterlimit:10;" d="M 458.933577 405.685161 L 470.937971 405.685161 L 470.937971 395.667808 L 458.933577 395.667808 Z M 458.933577 405.685161 " transform="matrix(0.998658,0,0,0.998658,0.405088,0)"/>
<path style="fill:none;stroke-width:0.24;stroke-linecap:round;stroke-linejoin:round;stroke:rgb(0%,0%,0%);stroke-opacity:1;stroke-miterlimit:10;" d="M 259.2554 445.195225 L 337.348503 445.195225 " transform="matrix(0.998658,0,0,0.998658,0.405088,0)"/>
<path style="fill:none;stroke-width:0.24;stroke-linecap:round;stroke-linejoin:round;stroke:rgb(0%,0%,0%);stroke-opacity:1;stroke-miterlimit:10;" d="M 454.853882 436.296562 L 456.637526 436.296562 L 456.637526 430.13986 L 454.853882 430.13986 Z M 454.853882 436.296562 " transform="matrix(0.998658,0,0,0.998658,0.405088,0)"/>
<path style="fill:none;stroke-width:0.24;stroke-linecap:round;stroke-linejoin:round;stroke:rgb(0%,0%,0%);stroke-opacity:1;stroke-miterlimit:10;" d="M 475.490957 462.538817 L 477.274601 462.538817 L 477.274601 468.691607 L 475.490957 468.691607 Z M 475.490957 462.538817 " transform="matrix(0.998658,0,0,0.998658,0.405088,0)"/>
<path style="fill:none;stroke-width:0.24;stroke-linecap:round;stroke-linejoin:round;stroke:rgb(0%,0%,0%);stroke-opacity:1;stroke-miterlimit:10;" d="M 421.387086 405.685161 L 510.025593 405.685161 L 510.025593 372.104931 L 421.387086 372.104931 Z M 421.387086 405.685161 " transform="matrix(0.998658,0,0,0.998658,0.405088,0)"/>
<path style="fill:none;stroke-width:0.24;stroke-linecap:round;stroke-linejoin:round;stroke:rgb(0%,0%,0%);stroke-opacity:1;stroke-miterlimit:10;" d="M 422.869544 430.284586 L 372.086537 430.284586 L 372.086537 451.332369 L 315.095978 451.332369 L 315.095978 445.195225 " transform="matrix(0.998658,0,0,0.998658,0.405088,0)"/>
<path style="fill:none;stroke-width:0.24;stroke-linecap:round;stroke-linejoin:round;stroke:rgb(0%,0%,0%);stroke-opacity:1;stroke-miterlimit:10;" d="M 463.111059 462.538817 L 464.894703 462.538817 L 464.894703 468.691607 L 463.111059 468.691607 Z M 463.111059 462.538817 " transform="matrix(0.998658,0,0,0.998658,0.405088,0)"/>
<path style="fill:none;stroke-width:0.24;stroke-linecap:round;stroke-linejoin:round;stroke:rgb(0%,0%,0%);stroke-opacity:1;stroke-miterlimit:10;" d="M 487.225458 168.855555 L 446.311165 168.855555 " transform="matrix(0.998658,0,0,0.998658,0.405088,0)"/>
<path style="fill:none;stroke-width:0.24;stroke-linecap:round;stroke-linejoin:round;stroke:rgb(0%,0%,0%);stroke-opacity:1;stroke-miterlimit:10;" d="M 164.374138 288.48879 L 164.374138 305.605515 " transform="matrix(0.998658,0,0,0.998658,0.405088,0)"/>
<path style="fill:none;stroke-width:0.24;stroke-linecap:round;stroke-linejoin:round;stroke:rgb(0%,0%,0%);stroke-opacity:1;stroke-miterlimit:10;" d="M 556.52942 514.495275 L 566.159533 514.495275 L 566.159533 472.399709 L 556.52942 472.399709 Z M 556.52942 514.495275 " transform="matrix(0.998658,0,0,0.998658,0.405088,0)"/>
<path style="fill:none;stroke-width:0.24;stroke-linecap:round;stroke-linejoin:round;stroke:rgb(0%,0%,0%);stroke-opacity:1;stroke-miterlimit:10;" d="M 208.875277 506.179425 L 550.392276 506.179425 L 550.392276 484.587944 L 208.875277 484.587944 Z M 208.875277 506.179425 " transform="matrix(0.998658,0,0,0.998658,0.405088,0)"/>
<path style="fill:none;stroke-width:0.24;stroke-linecap:round;stroke-linejoin:round;stroke:rgb(0%,0%,0%);stroke-opacity:1;stroke-miterlimit:10;" d="M 446.600616 436.296562 L 448.384261 436.296562 L 448.384261 430.13986 L 446.600616 430.13986 Z M 446.600616 436.296562 " transform="matrix(0.998658,0,0,0.998658,0.405088,0)"/>
<path style="fill:none;stroke-width:0.24;stroke-linecap:round;stroke-linejoin:round;stroke:rgb(0%,0%,0%);stroke-opacity:1;stroke-miterlimit:10;" d="M 471.364325 436.296562 L 473.147969 436.296562 L 473.147969 430.13986 L 471.364325 430.13986 Z M 471.364325 436.296562 " transform="matrix(0.998658,0,0,0.998658,0.405088,0)"/>
<path style="fill:none;stroke-width:0.24;stroke-linecap:round;stroke-linejoin:round;stroke:rgb(0%,0%,0%);stroke-opacity:1;stroke-miterlimit:10;" d="M 365.988508 322.675302 L 383.605905 322.675302 L 383.605905 305.261303 L 365.988508 305.261303 Z M 365.988508 322.675302 " transform="matrix(0.998658,0,0,0.998658,0.405088,0)"/>
<path style="fill:none;stroke-width:0.24;stroke-linecap:round;stroke-linejoin:round;stroke:rgb(0%,0%,0%);stroke-opacity:1;stroke-miterlimit:10;" d="M 429.679466 160.547528 L 503.857157 160.547528 L 503.857157 154.339977 L 429.679466 154.339977 Z M 429.679466 160.547528 " transform="matrix(0.998658,0,0,0.998658,0.405088,0)"/>
<path style="fill:none;stroke-width:0.24;stroke-linecap:round;stroke-linejoin:round;stroke:rgb(0%,0%,0%);stroke-opacity:1;stroke-miterlimit:10;" d="M 284.058223 445.195225 L 284.058223 458.200963 L 381.004757 458.200963 L 381.004757 438.936824 L 422.869544 438.936824 " transform="matrix(0.998658,0,0,0.998658,0.405088,0)"/>
<path style="fill:none;stroke-width:0.24;stroke-linecap:round;stroke-linejoin:round;stroke:rgb(0%,0%,0%);stroke-opacity:1;stroke-miterlimit:10;" d="M 483.748134 462.538817 L 485.531778 462.538817 L 485.531778 468.691607 L 483.748134 468.691607 Z M 483.748134 462.538817 " transform="matrix(0.998658,0,0,0.998658,0.405088,0)"/>
<path style="fill:none;stroke-width:0.24;stroke-linecap:round;stroke-linejoin:round;stroke:rgb(0%,0%,0%);stroke-opacity:1;stroke-miterlimit:10;" d="M 422.869544 420.896985 L 500.884417 420.896985 L 510.604495 430.358904 L 510.604495 477.938393 L 422.869544 477.938393 Z M 422.869544 420.896985 " transform="matrix(0.998658,0,0,0.998658,0.405088,0)"/>
<path style="fill:none;stroke-width:0.24;stroke-linecap:round;stroke-linejoin:round;stroke:rgb(0%,0%,0%);stroke-opacity:1;stroke-miterlimit:10;" d="M 344.764707 264.104497 L 344.764707 305.261303 " transform="matrix(0.998658,0,0,0.998658,0.405088,0)"/>
<path style="fill:none;stroke-width:0.24;stroke-linecap:round;stroke-linejoin:round;stroke:rgb(0%,0%,0%);stroke-opacity:1;stroke-miterlimit:10;" d="M 594.893414 288.48879 L 594.893414 305.605515 " transform="matrix(0.998658,0,0,0.998658,0.405088,0)"/>
<path style="fill:none;stroke-width:0.24;stroke-linecap:round;stroke-linejoin:round;stroke:rgb(0%,0%,0%);stroke-opacity:1;stroke-miterlimit:10;" d="M 230.724917 322.675302 L 365.988508 322.675302 L 365.988508 305.261303 L 230.724917 305.261303 Z M 230.724917 322.675302 " transform="matrix(0.998658,0,0,0.998658,0.405088,0)"/>
<path style="fill:none;stroke-width:0.24;stroke-linecap:round;stroke-linejoin:round;stroke:rgb(0%,0%,0%);stroke-opacity:1;stroke-miterlimit:10;" d="M 439.606854 264.104497 L 439.606854 240.924947 " transform="matrix(0.998658,0,0,0.998658,0.405088,0)"/>
<path style="fill:none;stroke-width:0.24;stroke-linecap:round;stroke-linejoin:round;stroke:rgb(0%,0%,0%);stroke-opacity:1;stroke-miterlimit:10;" d="M 208.875277 261.468146 L 181.338315 288.48879 " transform="matrix(0.998658,0,0,0.998658,0.405088,0)"/>
<path style="fill:none;stroke-width:0.24;stroke-linecap:round;stroke-linejoin:round;stroke:rgb(0%,0%,0%);stroke-opacity:1;stroke-miterlimit:10;" d="M 317.603249 264.104497 L 317.603249 240.924947 " transform="matrix(0.998658,0,0,0.998658,0.405088,0)"/>
<path style="fill:none;stroke-width:0.24;stroke-linecap:round;stroke-linejoin:round;stroke:rgb(0%,0%,0%);stroke-opacity:1;stroke-miterlimit:10;" d="M 429.343077 194.824005 L 504.193546 194.824005 L 504.193546 177.163581 L 429.343077 177.163581 Z M 429.343077 194.824005 " transform="matrix(0.998658,0,0,0.998658,0.405088,0)"/>
<path style="fill:none;stroke-width:0.24;stroke-linecap:round;stroke-linejoin:round;stroke:rgb(0%,0%,0%);stroke-opacity:1;stroke-miterlimit:10;" d="M 550.392276 288.48879 L 605.466199 288.48879 L 605.466199 299.898636 L 598.922259 305.605515 L 550.392276 305.605515 " transform="matrix(0.998658,0,0,0.998658,0.405088,0)"/>
<path style="fill:none;stroke-width:0.24;stroke-linecap:round;stroke-linejoin:round;stroke:rgb(0%,0%,0%);stroke-opacity:1;stroke-miterlimit:10;" d="M 487.225458 177.163581 L 487.225458 160.547528 " transform="matrix(0.998658,0,0,0.998658,0.405088,0)"/>
<path style="fill:none;stroke-width:0.24;stroke-linecap:round;stroke-linejoin:round;stroke:rgb(0%,0%,0%);stroke-opacity:1;stroke-miterlimit:10;" d="M 487.225458 240.924947 L 545.03352 240.924947 L 545.03352 218.770209 L 487.225458 218.770209 Z M 487.225458 240.924947 " transform="matrix(0.998658,0,0,0.998658,0.405088,0)"/>
<path style="fill:none;stroke-width:0.24;stroke-linecap:round;stroke-linejoin:round;stroke:rgb(0%,0%,0%);stroke-opacity:1;stroke-miterlimit:10;" d="M 241.309437 240.924947 L 446.311165 240.924947 L 446.311165 218.770209 L 241.309437 218.770209 Z M 241.309437 240.924947 " transform="matrix(0.998658,0,0,0.998658,0.405088,0)"/>
<path style="fill:none;stroke-width:0.24;stroke-linecap:round;stroke-linejoin:round;stroke:rgb(0%,0%,0%);stroke-opacity:1;stroke-miterlimit:10;" d="M 428.983219 218.770209 L 428.983219 240.924947 " transform="matrix(0.998658,0,0,0.998658,0.405088,0)"/>
<path style="fill:none;stroke-width:0.24;stroke-linecap:round;stroke-linejoin:round;stroke:rgb(0%,0%,0%);stroke-opacity:1;stroke-miterlimit:10;" d="M 556.52942 481.141912 L 566.159533 481.141912 " transform="matrix(0.998658,0,0,0.998658,0.405088,0)"/>
<path style="fill:none;stroke-width:0.24;stroke-linecap:round;stroke-linejoin:round;stroke:rgb(0%,0%,0%);stroke-opacity:1;stroke-miterlimit:10;" d="M 599.606772 487.873604 L 566.159533 487.873604 " transform="matrix(0.998658,0,0,0.998658,0.405088,0)"/>
<path style="fill:none;stroke-width:0.24;stroke-linecap:round;stroke-linejoin:round;stroke:rgb(0%,0%,0%);stroke-opacity:1;stroke-miterlimit:10;" d="M 566.159533 477.750641 L 599.606772 482.299716 L 599.606772 493.447492 " transform="matrix(0.998658,0,0,0.998658,0.405088,0)"/>
<path style="fill:none;stroke-width:0.24;stroke-linecap:round;stroke-linejoin:round;stroke:rgb(0%,0%,0%);stroke-opacity:1;stroke-miterlimit:10;" d="M 337.348503 445.195225 C 341.185684 445.296924 345.805166 443.556306 348.985216 440.376256 C 352.165266 437.196207 353.909795 432.576725 353.808096 428.735632 " transform="matrix(0.998658,0,0,0.998658,0.405088,0)"/>
<path style="fill:none;stroke-width:0.24;stroke-linecap:round;stroke-linejoin:round;stroke:rgb(0%,0%,0%);stroke-opacity:1;stroke-miterlimit:10;" d="M 458.980515 436.296562 L 460.764159 436.296562 L 460.764159 430.13986 L 458.980515 430.13986 Z M 458.980515 436.296562 " transform="matrix(0.998658,0,0,0.998658,0.405088,0)"/>
<path style="fill:none;stroke-width:0.24;stroke-linecap:round;stroke-linejoin:round;stroke:rgb(0%,0%,0%);stroke-opacity:1;stroke-miterlimit:10;" d="M 479.621502 436.296562 L 481.405146 436.296562 L 481.405146 430.13986 L 479.621502 430.13986 Z M 479.621502 436.296562 " transform="matrix(0.998658,0,0,0.998658,0.405088,0)"/>
<path style="fill:none;stroke-width:0.24;stroke-linecap:round;stroke-linejoin:round;stroke:rgb(0%,0%,0%);stroke-opacity:1;stroke-miterlimit:10;" d="M 550.392276 261.468146 L 577.929237 288.48879 " transform="matrix(0.998658,0,0,0.998658,0.405088,0)"/>
<path style="fill:none;stroke-width:0.24;stroke-linecap:round;stroke-linejoin:round;stroke:rgb(0%,0%,0%);stroke-opacity:1;stroke-miterlimit:10;" d="M 208.875277 288.48879 L 153.801353 288.48879 L 153.801353 299.898636 L 160.345293 305.605515 L 208.875277 305.605515 " transform="matrix(0.998658,0,0,0.998658,0.405088,0)"/>
<path style="fill:none;stroke-width:0.24;stroke-linecap:round;stroke-linejoin:round;stroke:rgb(0%,0%,0%);stroke-opacity:1;stroke-miterlimit:10;" d="M 208.875277 322.675302 L 550.392276 322.675302 " transform="matrix(0.998658,0,0,0.998658,0.405088,0)"/>
<path style="fill:none;stroke-width:0.24;stroke-linecap:round;stroke-linejoin:round;stroke:rgb(0%,0%,0%);stroke-opacity:1;stroke-miterlimit:10;" d="M 437.244308 405.685161 L 449.244791 405.685161 L 449.244791 395.667808 L 437.244308 395.667808 Z M 437.244308 405.685161 " transform="matrix(0.998658,0,0,0.998658,0.405088,0)"/>
<path style="fill:none;stroke-width:0.24;stroke-linecap:round;stroke-linejoin:round;stroke:rgb(0%,0%,0%);stroke-opacity:1;stroke-miterlimit:10;" d="M 446.311165 177.163581 L 446.311165 160.547528 " transform="matrix(0.998658,0,0,0.998658,0.405088,0)"/>
<path style="fill:none;stroke-width:0.24;stroke-linecap:round;stroke-linejoin:round;stroke:rgb(0%,0%,0%);stroke-opacity:1;stroke-miterlimit:10;" d="M 443.244549 405.685161 L 443.244549 420.896985 " transform="matrix(0.998658,0,0,0.998658,0.405088,0)"/>
<path style="fill:none;stroke-width:0.24;stroke-linecap:round;stroke-linejoin:round;stroke:rgb(0%,0%,0%);stroke-opacity:1;stroke-miterlimit:10;" d="M 434.670541 372.104931 L 497.434474 372.104931 L 497.434474 353.032456 L 434.670541 353.032456 Z M 434.670541 372.104931 " transform="matrix(0.998658,0,0,0.998658,0.405088,0)"/>
<path style="fill:none;stroke-width:0.24;stroke-linecap:round;stroke-linejoin:round;stroke:rgb(0%,0%,0%);stroke-opacity:1;stroke-miterlimit:10;" d="M 479.621502 462.538817 L 481.405146 462.538817 L 481.405146 468.691607 L 479.621502 468.691607 Z M 479.621502 462.538817 " transform="matrix(0.998658,0,0,0.998658,0.405088,0)"/>
<path style="fill:none;stroke-width:0.24;stroke-linecap:round;stroke-linejoin:round;stroke:rgb(0%,0%,0%);stroke-opacity:1;stroke-miterlimit:10;" d="M 371.476342 305.261303 L 371.476342 322.675302 " transform="matrix(0.998658,0,0,0.998658,0.405088,0)"/>
<path style="fill:none;stroke-width:0.24;stroke-linecap:round;stroke-linejoin:round;stroke:rgb(0%,0%,0%);stroke-opacity:1;stroke-miterlimit:10;" d="M 465.708295 405.685161 L 465.708295 420.896985 " transform="matrix(0.998658,0,0,0.998658,0.405088,0)"/>
<path style="fill:none;stroke-width:0.24;stroke-linecap:round;stroke-linejoin:round;stroke:rgb(0%,0%,0%);stroke-opacity:1;stroke-miterlimit:10;" d="M 483.748134 436.296562 L 485.531778 436.296562 L 485.531778 430.13986 L 483.748134 430.13986 Z M 483.748134 436.296562 " transform="matrix(0.998658,0,0,0.998658,0.405088,0)"/>
<path style="fill:none;stroke-width:0.24;stroke-linecap:round;stroke-linejoin:round;stroke:rgb(0%,0%,0%);stroke-opacity:1;stroke-miterlimit:10;" d="M 446.600616 462.538817 L 448.384261 462.538817 L 448.384261 468.691607 L 446.600616 468.691607 Z M 446.600616 462.538817 " transform="matrix(0.998658,0,0,0.998658,0.405088,0)"/>
<path style="fill:none;stroke-width:0.24;stroke-linecap:round;stroke-linejoin:round;stroke:rgb(0%,0%,0%);stroke-opacity:1;stroke-miterlimit:10;" d="M 467.237692 462.538817 L 469.021336 462.538817 L 469.021336 468.691607 L 467.237692 468.691607 Z M 467.237692 462.538817 " transform="matrix(0.998658,0,0,0.998658,0.405088,0)"/>
<path style="fill:none;stroke-width:0.24;stroke-linecap:round;stroke-linejoin:round;stroke:rgb(0%,0%,0%);stroke-opacity:1;stroke-miterlimit:10;" d="M 599.606772 491.112326 C 600.119178 491.319636 600.639408 491.515211 601.159637 491.702963 C 602.419141 492.152785 603.702113 492.547847 605.000731 492.86859 C 606.342375 493.197156 607.707489 493.451403 609.080426 493.592217 C 610.398601 493.725208 611.728511 493.760412 613.050598 493.686093 C 614.224048 493.619598 615.393587 493.467049 616.551391 493.255828 C 617.662257 493.048519 618.7653 492.786448 619.856609 492.485263 C 620.904891 492.195812 621.941438 491.867246 622.970163 491.519122 C 623.842427 491.22576 624.710781 490.920663 625.575222 490.611654 C 626.56092 490.259619 627.542707 489.903673 628.532316 489.555549 C 629.408492 489.250452 630.292491 488.949266 631.180402 488.675461 C 632.017463 488.421214 632.862347 488.186524 633.715054 487.99486 C 635.404822 487.607622 637.125882 487.372932 638.854765 487.255587 C 640.626675 487.138242 642.410319 487.146065 644.18614 487.251675 C 646.032368 487.365109 647.870774 487.57633 649.693533 487.865781 C 652.697565 488.335161 655.662482 488.996204 658.607842 489.743301 C 662.578015 490.748557 666.505161 491.902449 670.447953 493.001581 C 671.863916 493.396642 673.283791 493.787792 674.703665 494.167208 " transform="matrix(0.998658,0,0,0.998658,0.405088,0)"/>
<path style="fill:none;stroke-width:0.24;stroke-linecap:round;stroke-linejoin:round;stroke:rgb(0%,0%,0%);stroke-opacity:1;stroke-miterlimit:10;" d="M 454.853882 462.538817 L 456.637526 462.538817 L 456.637526 468.691607 L 454.853882 468.691607 Z M 454.853882 462.538817 " transform="matrix(0.998658,0,0,0.998658,0.405088,0)"/>
<path style="fill:none;stroke-width:0.24;stroke-linecap:round;stroke-linejoin:round;stroke:rgb(0%,0%,0%);stroke-opacity:1;stroke-miterlimit:10;" d="M 450.727249 462.538817 L 452.510893 462.538817 L 452.510893 468.691607 L 450.727249 468.691607 Z M 450.727249 462.538817 " transform="matrix(0.998658,0,0,0.998658,0.405088,0)"/>
<path style="fill:none;stroke-width:0.24;stroke-linecap:round;stroke-linejoin:round;stroke:rgb(0%,0%,0%);stroke-opacity:1;stroke-miterlimit:10;" d="M 599.606772 496.38894 C 599.778878 496.451524 599.954895 496.514108 600.130913 496.57278 C 601.797212 497.14386 603.494803 497.624974 605.219775 497.980921 C 607.026888 498.352513 608.869204 498.591115 610.715433 498.645876 C 612.424758 498.700637 614.145818 498.598938 615.843409 498.368159 C 617.341514 498.164761 618.823973 497.859664 620.282962 497.480249 C 621.616784 497.136037 622.934959 496.737063 624.241401 496.302887 C 625.301417 495.950852 626.353611 495.575348 627.405804 495.199844 C 628.700511 494.734375 629.995217 494.264995 631.301658 493.826907 C 632.177835 493.529633 633.061834 493.251917 633.957567 493.017227 C 634.493443 492.876413 635.03323 492.755156 635.576928 492.645634 C 636.406166 492.485263 637.243227 492.364006 638.0842 492.277953 C 639.860021 492.094113 641.651488 492.070644 643.435132 492.156697 C 645.433909 492.254484 647.428774 492.493086 649.404082 492.81774 C 652.916609 493.396642 656.378287 494.241526 659.812584 495.160729 C 663.684969 496.201188 667.529974 497.335523 671.394536 498.387717 C 672.075137 498.575469 672.755738 498.755398 673.436339 498.939238 " transform="matrix(0.998658,0,0,0.998658,0.405088,0)"/>
<path style="fill:none;stroke-width:0.24;stroke-linecap:round;stroke-linejoin:round;stroke:rgb(0%,0%,0%);stroke-opacity:1;stroke-miterlimit:10;" d="M 425.795347 316.808052 L 509.916071 316.808052 L 509.916071 305.261303 L 425.795347 305.261303 Z M 425.795347 316.808052 " transform="matrix(0.998658,0,0,0.998658,0.405088,0)"/>
<path style="fill:none;stroke-width:0.24;stroke-linecap:round;stroke-linejoin:round;stroke:rgb(0%,0%,0%);stroke-opacity:1;stroke-miterlimit:10;" d="M 398.575216 264.104497 L 398.575216 305.261303 " transform="matrix(0.998658,0,0,0.998658,0.405088,0)"/>
<path style="fill:none;stroke-width:0.24;stroke-linecap:round;stroke-linejoin:round;stroke:rgb(0%,0%,0%);stroke-opacity:1;stroke-miterlimit:10;" d="M 355.756023 177.163581 L 577.7806 177.163581 L 577.7806 160.547528 L 355.756023 160.547528 Z M 355.756023 177.163581 " transform="matrix(0.998658,0,0,0.998658,0.405088,0)"/>
<path style="fill:none;stroke-width:0.24;stroke-linecap:round;stroke-linejoin:round;stroke:rgb(0%,0%,0%);stroke-opacity:1;stroke-miterlimit:10;" d="M 480.955323 405.685161 L 492.959717 405.685161 L 492.959717 395.667808 L 480.955323 395.667808 Z M 480.955323 405.685161 " transform="matrix(0.998658,0,0,0.998658,0.405088,0)"/>
<path style="fill:none;stroke-width:0.24;stroke-linecap:round;stroke-linejoin:round;stroke:rgb(0%,0%,0%);stroke-opacity:1;stroke-miterlimit:10;" d="M 471.364325 462.538817 L 473.147969 462.538817 L 473.147969 468.691607 L 471.364325 468.691607 Z M 471.364325 462.538817 " transform="matrix(0.998658,0,0,0.998658,0.405088,0)"/>
<path style="fill:none;stroke-width:0.24;stroke-linecap:round;stroke-linejoin:round;stroke:rgb(0%,0%,0%);stroke-opacity:1;stroke-miterlimit:10;" d="M 467.237692 436.296562 L 469.021336 436.296562 L 469.021336 430.13986 L 467.237692 430.13986 Z M 467.237692 436.296562 " transform="matrix(0.998658,0,0,0.998658,0.405088,0)"/>
<path style="fill:none;stroke-width:0.24;stroke-linecap:round;stroke-linejoin:round;stroke:rgb(0%,0%,0%);stroke-opacity:1;stroke-miterlimit:10;" d="M 252.754487 305.261303 L 544.392034 305.261303 L 544.392034 264.104497 L 252.754487 264.104497 Z M 252.754487 305.261303 " transform="matrix(0.998658,0,0,0.998658,0.405088,0)"/>
<path style="fill:none;stroke-width:0.24;stroke-linecap:round;stroke-linejoin:round;stroke:rgb(0%,0%,0%);stroke-opacity:1;stroke-miterlimit:10;" d="M 475.490957 436.296562 L 477.274601 436.296562 L 477.274601 430.13986 L 475.490957 430.13986 Z M 475.490957 436.296562 " transform="matrix(0.998658,0,0,0.998658,0.405088,0)"/>
<path style="fill:none;stroke-width:0.24;stroke-linecap:round;stroke-linejoin:round;stroke:rgb(0%,0%,0%);stroke-opacity:1;stroke-miterlimit:10;" d="M 450.727249 436.296562 L 452.510893 436.296562 L 452.510893 430.13986 L 450.727249 430.13986 Z M 450.727249 436.296562 " transform="matrix(0.998658,0,0,0.998658,0.405088,0)"/>
<path style="fill:none;stroke-width:0.24;stroke-linecap:round;stroke-linejoin:round;stroke:rgb(0%,0%,0%);stroke-opacity:1;stroke-miterlimit:10;" d="M 515.904578 208.662893 L 487.225458 208.662893 L 487.225458 199.963716 L 515.904578 199.963716 Z M 515.904578 208.662893 " transform="matrix(0.998658,0,0,0.998658,0.405088,0)"/>
<path style="fill:none;stroke-width:0.24;stroke-linecap:round;stroke-linejoin:round;stroke:rgb(0%,0%,0%);stroke-opacity:1;stroke-miterlimit:10;" d="M 370.064291 240.924947 L 382.839251 240.924947 L 382.839251 227.825332 L 370.064291 227.825332 Z M 370.064291 240.924947 " transform="matrix(0.998658,0,0,0.998658,0.405088,0)"/>
<path style="fill:none;stroke-width:0.24;stroke-linecap:round;stroke-linejoin:round;stroke:rgb(0%,0%,0%);stroke-opacity:1;stroke-miterlimit:10;" d="M 353.808096 428.735632 L 353.808096 322.675302 L 242.795807 322.675302 L 242.795807 428.735632 " transform="matrix(0.998658,0,0,0.998658,0.405088,0)"/>
<path style="fill:none;stroke-width:0.24;stroke-linecap:round;stroke-linejoin:round;stroke:rgb(0%,0%,0%);stroke-opacity:1;stroke-miterlimit:10;" d="M 521.885262 218.770209 L 487.225458 218.770209 L 487.225458 208.662893 L 521.885262 208.662893 Z M 521.885262 218.770209 " transform="matrix(0.998658,0,0,0.998658,0.405088,0)"/>
<path style="fill:none;stroke-width:0.24;stroke-linecap:round;stroke-linejoin:round;stroke:rgb(0%,0%,0%);stroke-opacity:1;stroke-miterlimit:10;" d="M 452.550008 154.339977 L 455.651828 150.624052 L 466.709639 150.624052 " transform="matrix(0.998658,0,0,0.998658,0.405088,0)"/>
<path style="fill:none;stroke-width:0.24;stroke-linecap:round;stroke-linejoin:round;stroke:rgb(0%,0%,0%);stroke-opacity:1;stroke-miterlimit:10;" d="M 599.606772 501.60297 C 601.288717 502.138845 603.005866 502.584756 604.73866 502.921145 C 605.826057 503.128455 606.921277 503.292738 608.020409 503.410083 C 609.115629 503.523516 610.218672 503.590012 611.321715 503.597835 C 613.347872 503.617392 615.374029 503.453109 617.372806 503.132366 C 619.082132 502.862473 620.767988 502.479146 622.434287 502.017589 C 623.846339 501.626439 625.246656 501.180528 626.631327 500.707236 C 627.988618 500.241768 629.334174 499.75283 630.683641 499.271716 C 631.33295 499.037026 631.986171 498.806247 632.643303 498.583292 C 633.085303 498.434655 633.531214 498.286018 633.981036 498.149115 C 634.372186 498.027859 634.767248 497.910514 635.162309 497.804903 C 635.396999 497.742319 635.631689 497.687558 635.866379 497.632797 C 636.101069 497.578036 636.335759 497.531098 636.570449 497.48416 C 636.922484 497.417665 637.278431 497.355081 637.638289 497.304231 C 638.835208 497.136037 640.051685 497.057807 641.26425 497.046072 C 643.036159 497.034338 644.81198 497.17124 646.572155 497.394196 C 647.741694 497.542833 648.90341 497.730585 650.061214 497.945717 C 651.794008 498.270372 653.511157 498.65761 655.220483 499.076141 C 657.062799 499.529875 658.893381 500.018812 660.71614 500.527307 C 662.953519 501.145324 665.179162 501.78681 667.412629 502.408739 C 668.996786 502.850738 670.580944 503.284915 672.165102 503.711268 " transform="matrix(0.998658,0,0,0.998658,0.405088,0)"/>
<path style="fill:none;stroke-width:0.24;stroke-linecap:round;stroke-linejoin:round;stroke:rgb(0%,0%,0%);stroke-opacity:1;stroke-miterlimit:10;" d="M 556.52942 476.236891 L 550.392276 481.051947 " transform="matrix(0.998658,0,0,0.998658,0.405088,0)"/>
<path style="fill:none;stroke-width:0.24;stroke-linecap:round;stroke-linejoin:round;stroke:rgb(0%,0%,0%);stroke-opacity:1;stroke-miterlimit:10;" d="M 208.875277 506.179425 L 208.875277 516.748299 L 219.264222 525.447475 L 399.0798 524.680821 " transform="matrix(0.998658,0,0,0.998658,0.405088,0)"/>
<path style="fill:none;stroke-width:0.24;stroke-linecap:round;stroke-linejoin:round;stroke:rgb(0%,0%,0%);stroke-opacity:1;stroke-miterlimit:10;" d="M 556.52942 510.662004 L 550.392276 505.846948 " transform="matrix(0.998658,0,0,0.998658,0.405088,0)"/>
<path style="fill:none;stroke-width:0.24;stroke-linecap:round;stroke-linejoin:round;stroke:rgb(0%,0%,0%);stroke-opacity:1;stroke-miterlimit:10;" d="M 599.606772 499.02138 L 566.159533 499.02138 " transform="matrix(0.998658,0,0,0.998658,0.405088,0)"/>
<path style="fill:none;stroke-width:0.24;stroke-linecap:round;stroke-linejoin:round;stroke:rgb(0%,0%,0%);stroke-opacity:1;stroke-miterlimit:10;" d="M 566.159533 509.144342 L 599.606772 504.595268 L 599.606772 493.447492 " transform="matrix(0.998658,0,0,0.998658,0.405088,0)"/>
<path style="fill:none;stroke-width:0.24;stroke-linecap:round;stroke-linejoin:round;stroke:rgb(0%,0%,0%);stroke-opacity:1;stroke-miterlimit:10;" d="M 208.875277 484.587944 L 550.392276 484.587944 L 550.392276 240.924947 L 208.875277 240.924947 Z M 208.875277 484.587944 " transform="matrix(0.998658,0,0,0.998658,0.405088,0)"/>
<path style="fill:none;stroke-width:0.24;stroke-linecap:round;stroke-linejoin:round;stroke:rgb(0%,0%,0%);stroke-opacity:1;stroke-miterlimit:10;" d="M 411.651362 218.770209 L 446.311165 218.770209 L 446.311165 208.662893 L 411.651362 208.662893 Z M 411.651362 218.770209 " transform="matrix(0.998658,0,0,0.998658,0.405088,0)"/>
<path style="fill:none;stroke-width:0.24;stroke-linecap:round;stroke-linejoin:round;stroke:rgb(0%,0%,0%);stroke-opacity:1;stroke-miterlimit:10;" d="M 599.606772 485.753571 C 603.338343 487.41987 607.464976 488.753691 611.493821 488.784983 C 618.432823 488.843656 625.082373 485.037766 631.915764 483.344087 C 645.766386 479.917612 660.383663 485.162934 674.367276 488.964912 C 674.903152 489.109638 675.439027 489.254364 675.970991 489.395178 " transform="matrix(0.998658,0,0,0.998658,0.405088,0)"/>
<path style="fill:none;stroke-width:0.24;stroke-linecap:round;stroke-linejoin:round;stroke:rgb(0%,0%,0%);stroke-opacity:1;stroke-miterlimit:10;" d="M 556.52942 505.756983 L 566.159533 505.756983 " transform="matrix(0.998658,0,0,0.998658,0.405088,0)"/>
<path style="fill:none;stroke-width:0.24;stroke-linecap:round;stroke-linejoin:round;stroke:rgb(0%,0%,0%);stroke-opacity:1;stroke-miterlimit:10;" d="M 509.309788 506.261567 L 509.309788 525.314484 " transform="matrix(0.998658,0,0,0.998658,0.405088,0)"/>
<path style="fill:none;stroke-width:0.24;stroke-linecap:round;stroke-linejoin:round;stroke:rgb(0%,0%,0%);stroke-opacity:1;stroke-miterlimit:10;" d="M 259.2554 445.195225 C 255.418218 445.296924 250.798737 443.556306 247.618687 440.376256 C 244.434726 437.196207 242.694108 432.576725 242.795807 428.735632 " transform="matrix(0.998658,0,0,0.998658,0.405088,0)"/>
<path style="fill:none;stroke-width:0.24;stroke-linecap:round;stroke-linejoin:round;stroke:rgb(0%,0%,0%);stroke-opacity:1;stroke-miterlimit:10;" d="M 271.056396 218.770209 L 271.056396 240.924947 " transform="matrix(0.998658,0,0,0.998658,0.405088,0)"/>
<path style="fill:none;stroke-width:0.24;stroke-linecap:round;stroke-linejoin:round;stroke:rgb(0%,0%,0%);stroke-opacity:1;stroke-miterlimit:10;" d="M 480.990527 154.339977 L 477.888707 150.624052 L 466.826984 150.624052 " transform="matrix(0.998658,0,0,0.998658,0.405088,0)"/>
<path style="fill:none;stroke-width:0.24;stroke-linecap:round;stroke-linejoin:round;stroke:rgb(0%,0%,0%);stroke-opacity:1;stroke-miterlimit:10;" d="M 675.970991 489.395178 L 672.165102 503.711268 " transform="matrix(0.998658,0,0,0.998658,0.405088,0)"/>
<path style="fill:none;stroke-width:0.24;stroke-linecap:round;stroke-linejoin:round;stroke:rgb(0%,0%,0%);stroke-opacity:1;stroke-miterlimit:10;" d="M 293.125081 240.924947 L 307.668039 240.924947 L 307.668039 227.825332 L 293.125081 227.825332 Z M 293.125081 240.924947 " transform="matrix(0.998658,0,0,0.998658,0.405088,0)"/>
<path style="fill:none;stroke-width:0.24;stroke-linecap:round;stroke-linejoin:round;stroke:rgb(0%,0%,0%);stroke-opacity:1;stroke-miterlimit:10;" d="M 417.635957 208.662893 L 446.311165 208.662893 L 446.311165 199.963716 L 417.635957 199.963716 Z M 417.635957 208.662893 " transform="matrix(0.998658,0,0,0.998658,0.405088,0)"/>
<path style="fill:none;stroke-width:0.24;stroke-linecap:round;stroke-linejoin:round;stroke:rgb(0%,0%,0%);stroke-opacity:1;stroke-miterlimit:10;" d="M 445.634476 459.519139 L 487.581405 459.519139 L 487.581405 439.312328 L 445.634476 439.312328 Z M 445.634476 459.519139 " transform="matrix(0.998658,0,0,0.998658,0.405088,0)"/>
</g>
</svg>
