<svg xmlns="http://www.w3.org/2000/svg" version="1.1" width="195" height="195" viewBox="0 0 195.27532 195.27532" preserveAspectRatio="xMidYMid meet">
<defs><clipPath id="a2-asset-bounds"><rect width="195.27531873914927" height="195.27531873914927" /></clipPath></defs><g clip-path="url(#a2-asset-bounds)"><path transform="matrix(1,0,0,-1,0,195.27532)" d="M119.11179 106.7955 119.6778 118.94553 119.11179 106.7955" fill="#c99898" />
<path transform="matrix(1,0,0,-1,0,195.27532)" stroke-width=".197" stroke-linecap="round" stroke-linejoin="round" fill="none" stroke="#040000" d="M119.11152 106.79599 119.13352 107.26401" />
<path transform="matrix(1,0,0,-1,0,195.27532)" stroke-width=".197" stroke-linecap="round" stroke-dasharray=".864,.864" stroke-linejoin="round" fill="none" stroke="#040000" d="M119.17341 108.12607 119.63541 118.04709" />
<path transform="matrix(1,0,0,-1,0,195.27532)" stroke-width=".197" stroke-linecap="round" stroke-linejoin="round" fill="none" stroke="#040000" d="M119.65589 118.4791 119.67789 118.94711" />
<path transform="matrix(1,0,0,-1,0,195.27532)" d="M119.67762 118.94638 181.3656 139.08542" fill="#c99898" />
<path transform="matrix(1,0,0,-1,0,195.27532)" stroke-width=".197" stroke-linecap="round" stroke-linejoin="round" fill="none" stroke="#040000" d="M119.67771 118.94638 120.12272 119.0914" />
<path transform="matrix(1,0,0,-1,0,195.27532)" stroke-width=".197" stroke-linecap="round" stroke-dasharray=".927,.927" stroke-linejoin="round" fill="none" stroke="#040000" d="M121.00361 119.37949 180.47962 138.79648" />
<path transform="matrix(1,0,0,-1,0,195.27532)" stroke-width=".197" stroke-linecap="round" stroke-linejoin="round" fill="none" stroke="#040000" d="M180.91989 138.93955 181.3649 139.08457" />
<path transform="matrix(1,0,0,-1,0,195.27532)" d="M151.21909 106.36972 151.25009 106.68576 151.21909 106.36972" fill="#c99898" />
<path transform="matrix(1,0,0,-1,0,195.27532)" stroke-width=".197" stroke-linecap="round" stroke-dasharray=".316" stroke-linejoin="round" fill="none" stroke="#040000" d="M151.21939 106.3707 151.2504 106.68564" />
<path transform="matrix(1,0,0,-1,0,195.27532)" d="M151.25061 106.68564 152.1546 115.85959 151.25061 106.68564" fill="#c99898" />
<path transform="matrix(1,0,0,-1,0,195.27532)" stroke-width=".197" stroke-linecap="round" stroke-linejoin="round" fill="none" stroke="#040000" d="M151.2504 106.68613 151.29639 107.15207" />
<path transform="matrix(1,0,0,-1,0,195.27532)" stroke-width=".197" stroke-linecap="round" stroke-dasharray=".92,.92" stroke-linejoin="round" fill="none" stroke="#040000" d="M151.38681 108.06747 152.06381 114.93649" />
<path transform="matrix(1,0,0,-1,0,195.27532)" stroke-width=".197" stroke-linecap="round" stroke-linejoin="round" fill="none" stroke="#040000" d="M152.10901 115.39365 152.155 115.85959" />
<path transform="matrix(1,0,0,-1,0,195.27532)" d="M60.67031 76.81064 60.49731 77.28268 60.67031 76.81064" fill="#c99898" />
<path transform="matrix(1,0,0,-1,0,195.27532)" stroke-width=".197" stroke-linecap="round" stroke-dasharray=".502" stroke-linejoin="round" fill="none" stroke="#040000" d="M60.67031 76.81015 60.49831 77.2822" />
<path transform="matrix(1,0,0,-1,0,195.27532)" d="M60.4981 77.28232 57.8801 84.46432" fill="#c99898" />
<path transform="matrix(1,0,0,-1,0,195.27532)" stroke-width=".197" stroke-linecap="round" stroke-linejoin="round" fill="none" stroke="#040000" d="M60.4981 77.28232 60.3371 77.72128" />
<path transform="matrix(1,0,0,-1,0,195.27532)" stroke-width=".197" stroke-linecap="round" stroke-dasharray=".958,.958" stroke-linejoin="round" fill="none" stroke="#040000" d="M60.00961 78.62216 58.20361 83.57516" />
<path transform="matrix(1,0,0,-1,0,195.27532)" stroke-width=".197" stroke-linecap="round" stroke-linejoin="round" fill="none" stroke="#040000" d="M58.04 84.02499 57.87901 84.46396" />
<path transform="matrix(1,0,0,-1,0,195.27532)" d="M21.49221 86.89316 77.29421 105.1091" fill="#c99898" />
<path transform="matrix(1,0,0,-1,0,195.27532)" stroke-width=".197" stroke-linecap="round" stroke-linejoin="round" fill="none" stroke="#040000" d="M21.4921 86.89316 21.93711 87.03818" />
<path transform="matrix(1,0,0,-1,0,195.27532)" stroke-width=".197" stroke-linecap="round" stroke-dasharray=".947,.947" stroke-linejoin="round" fill="none" stroke="#040000" d="M22.83721 87.33212 76.39921 104.81808" />
<path transform="matrix(1,0,0,-1,0,195.27532)" stroke-width=".197" stroke-linecap="round" stroke-linejoin="round" fill="none" stroke="#040000" d="M76.84921 104.96494 77.29421 105.10995" />
<path transform="matrix(1,0,0,-1,0,195.27532)" d="M80.54861 95.85849 80.07861 106.01852 80.54861 95.85849" fill="#c99898" />
<path transform="matrix(1,0,0,-1,0,195.27532)" stroke-width=".197" stroke-linecap="round" stroke-linejoin="round" fill="none" stroke="#040000" d="M80.5487 95.85898 80.5267 96.327" />
<path transform="matrix(1,0,0,-1,0,195.27532)" stroke-width=".197" stroke-linecap="round" stroke-dasharray="1.026,1.026" stroke-linejoin="round" fill="none" stroke="#040000" d="M80.47961 97.35165 80.12261 105.03867" />
<path transform="matrix(1,0,0,-1,0,195.27532)" stroke-width=".197" stroke-linecap="round" stroke-linejoin="round" fill="none" stroke="#040000" d="M80.09921 105.55136 80.0772 106.01938" />
<path transform="matrix(1,0,0,-1,0,195.27532)" d="M80.07771 106.01865 116.89472 118.03769" fill="#c99898" />
<path transform="matrix(1,0,0,-1,0,195.27532)" stroke-width=".197" stroke-linecap="round" stroke-linejoin="round" fill="none" stroke="#040000" d="M80.07751 106.01865 80.52251 106.16367" />
<path transform="matrix(1,0,0,-1,0,195.27532)" stroke-width=".197" stroke-linecap="round" stroke-dasharray=".922,.922" stroke-linejoin="round" fill="none" stroke="#040000" d="M81.39881 106.4498 116.01081 117.74985" />
<path transform="matrix(1,0,0,-1,0,195.27532)" stroke-width=".197" stroke-linecap="round" stroke-linejoin="round" fill="none" stroke="#040000" d="M116.44889 117.89267 116.8939 118.03769" />
<path transform="matrix(1,0,0,-1,0,195.27532)" d="M119.11131 106.79599 120.92829 105.67197" fill="#c99898" />
<path transform="matrix(1,0,0,-1,0,195.27532)" stroke-width=".197" stroke-linecap="round" stroke-linejoin="round" fill="none" stroke="#040000" d="M119.11152 106.79599 119.50953 106.54904" />
<path transform="matrix(1,0,0,-1,0,195.27532)" stroke-width=".197" stroke-linecap="round" stroke-linejoin="round" fill="none" stroke="#040000" d="M120.53101 105.91806 120.92902 105.67111" />
<path transform="matrix(1,0,0,-1,0,195.27532)" d="M120.92881 105.67148 121.4958 117.82248 120.92881 105.67148" fill="#c99898" />
<path transform="matrix(1,0,0,-1,0,195.27532)" stroke-width=".197" stroke-linecap="round" stroke-linejoin="round" fill="none" stroke="#040000" d="M120.9293 105.67148 120.9513 106.1395" />
<path transform="matrix(1,0,0,-1,0,195.27532)" stroke-width=".197" stroke-linecap="round" stroke-dasharray=".864,.864" stroke-linejoin="round" fill="none" stroke="#040000" d="M120.9911 107.00204 121.4531 116.92307" />
<path transform="matrix(1,0,0,-1,0,195.27532)" stroke-width=".197" stroke-linecap="round" stroke-linejoin="round" fill="none" stroke="#040000" d="M121.4737 117.35507 121.4957 117.82309" />
<path transform="matrix(1,0,0,-1,0,195.27532)" d="M121.49561 117.82236 119.67863 118.94638" fill="#c99898" />
<path transform="matrix(1,0,0,-1,0,195.27532)" stroke-width=".197" stroke-linecap="round" stroke-linejoin="round" fill="none" stroke="#040000" d="M121.4957 117.82236 121.09769 118.06833" />
<path transform="matrix(1,0,0,-1,0,195.27532)" stroke-width=".197" stroke-linecap="round" stroke-linejoin="round" fill="none" stroke="#040000" d="M120.07581 118.70029 119.6778 118.94724" />
<path transform="matrix(1,0,0,-1,0,195.27532)" d="M183.18259 137.96054 181.3656 139.08457" fill="#c99898" />
<path transform="matrix(1,0,0,-1,0,195.27532)" stroke-width=".197" stroke-linecap="round" stroke-linejoin="round" fill="none" stroke="#040000" d="M183.18271 137.96054 182.7847 138.20749" />
<path transform="matrix(1,0,0,-1,0,195.27532)" stroke-width=".197" stroke-linecap="round" stroke-linejoin="round" fill="none" stroke="#040000" d="M181.76279 138.83896 181.36478 139.08493" />
<path transform="matrix(1,0,0,-1,0,195.27532)" d="M183.18259 115.08798 153.0376 105.24594" fill="#c99898" />
<path transform="matrix(1,0,0,-1,0,195.27532)" stroke-width=".197" stroke-linecap="round" stroke-linejoin="round" fill="none" stroke="#040000" d="M183.18271 115.08798 182.7377 114.94296" />
<path transform="matrix(1,0,0,-1,0,195.27532)" stroke-width=".197" stroke-linecap="round" stroke-dasharray=".933,.933" stroke-linejoin="round" fill="none" stroke="#040000" d="M181.8511 114.65341 153.92511 105.53647" />
<path transform="matrix(1,0,0,-1,0,195.27532)" stroke-width=".197" stroke-linecap="round" stroke-linejoin="round" fill="none" stroke="#040000" d="M153.48221 105.39169 153.0372 105.24667" />
<path transform="matrix(1,0,0,-1,0,195.27532)" d="M153.0372 105.24667 151.22022 106.3707" fill="#c99898" />
<path transform="matrix(1,0,0,-1,0,195.27532)" stroke-width=".197" stroke-linecap="round" stroke-linejoin="round" fill="none" stroke="#040000" d="M153.03739 105.24667 152.63938 105.49265" />
<path transform="matrix(1,0,0,-1,0,195.27532)" stroke-width=".197" stroke-linecap="round" stroke-linejoin="round" fill="none" stroke="#040000" d="M151.6175 106.1246 151.21949 106.37155" />
<path transform="matrix(1,0,0,-1,0,195.27532)" d="M153.0375 105.2457 153.06851 105.56174 153.0375 105.2457" fill="#c99898" />
<path transform="matrix(1,0,0,-1,0,195.27532)" stroke-width=".197" stroke-linecap="round" stroke-dasharray=".316" stroke-linejoin="round" fill="none" stroke="#040000" d="M153.03739 105.24667 153.06839 105.56161" />
<path transform="matrix(1,0,0,-1,0,195.27532)" d="M151.36042 115.69882 150.28842 104.82578" fill="#c99898" />
<path transform="matrix(1,0,0,-1,0,195.27532)" stroke-width=".197" stroke-linecap="round" stroke-linejoin="round" fill="none" stroke="#040000" d="M151.36042 115.69882 151.31443 115.23288" />
<path transform="matrix(1,0,0,-1,0,195.27532)" stroke-width=".197" stroke-linecap="round" stroke-dasharray=".908,.908" stroke-linejoin="round" fill="none" stroke="#040000" d="M151.22531 114.32919 150.3793 105.74423" />
<path transform="matrix(1,0,0,-1,0,195.27532)" stroke-width=".197" stroke-linecap="round" stroke-linejoin="round" fill="none" stroke="#040000" d="M150.3341 105.2916 150.28812 104.82565" />
<path transform="matrix(1,0,0,-1,0,195.27532)" d="M150.2406 104.33261 150.2876 104.82565 150.2406 104.33261" fill="#c99898" />
<path transform="matrix(1,0,0,-1,0,195.27532)" stroke-width=".197" stroke-linecap="round" stroke-dasharray=".495" stroke-linejoin="round" fill="none" stroke="#040000" d="M150.28821 104.82578 150.2402 104.33273" />
<path transform="matrix(1,0,0,-1,0,195.27532)" d="M150.23969 104.33359 62.48869 75.68564" fill="#c99898" />
<path transform="matrix(1,0,0,-1,0,195.27532)" stroke-width=".197" stroke-linecap="round" stroke-linejoin="round" fill="none" stroke="#040000" d="M150.23969 104.33359 149.79569 104.18857" />
<path transform="matrix(1,0,0,-1,0,195.27532)" stroke-width=".197" stroke-linecap="round" stroke-dasharray=".942,.942" stroke-linejoin="round" fill="none" stroke="#040000" d="M148.89939 103.89609 63.38039 75.97714" />
<path transform="matrix(1,0,0,-1,0,195.27532)" stroke-width=".197" stroke-linecap="round" stroke-linejoin="round" fill="none" stroke="#040000" d="M62.9331 75.83115 62.48809 75.68613" />
<path transform="matrix(1,0,0,-1,0,195.27532)" d="M62.48811 75.68613 60.6711 76.81015" fill="#c99898" />
<path transform="matrix(1,0,0,-1,0,195.27532)" stroke-width=".197" stroke-linecap="round" stroke-linejoin="round" fill="none" stroke="#040000" d="M62.48811 75.68613 62.09011 75.9321" />
<path transform="matrix(1,0,0,-1,0,195.27532)" stroke-width=".197" stroke-linecap="round" stroke-linejoin="round" fill="none" stroke="#040000" d="M61.0682 76.56406 60.6702 76.81003" />
<path transform="matrix(1,0,0,-1,0,195.27532)" d="M62.48861 75.68661 62.31561 76.15866 62.48861 75.68661" fill="#c99898" />
<path transform="matrix(1,0,0,-1,0,195.27532)" stroke-width=".197" stroke-linecap="round" stroke-dasharray=".502" stroke-linejoin="round" fill="none" stroke="#040000" d="M62.48811 75.68613 62.31611 76.15817" />
<path transform="matrix(1,0,0,-1,0,195.27532)" d="M56.37791 83.37802 59.53091 74.72897" fill="#c99898" />
<path transform="matrix(1,0,0,-1,0,195.27532)" stroke-width=".197" stroke-linecap="round" stroke-linejoin="round" fill="none" stroke="#040000" d="M56.37791 83.37802 56.5389 82.93906" />
<path transform="matrix(1,0,0,-1,0,195.27532)" stroke-width=".197" stroke-linecap="round" stroke-dasharray=".919,.919" stroke-linejoin="round" fill="none" stroke="#040000" d="M56.85281 82.0748 59.21281 75.59982" />
<path transform="matrix(1,0,0,-1,0,195.27532)" stroke-width=".197" stroke-linecap="round" stroke-linejoin="round" fill="none" stroke="#040000" d="M59.3706 75.16904 59.53159 74.73007" />
<path transform="matrix(1,0,0,-1,0,195.27532)" d="M59.53321 74.72079 59.5302 74.72885 59.53321 74.72079" fill="#c99898" />
<path transform="matrix(1,0,0,-1,0,195.27532)" stroke-width=".197" stroke-linecap="round" stroke-linejoin="round" fill="none" stroke="#040000" d="M59.53071 74.7291 59.53371 74.72104" />
<path transform="matrix(1,0,0,-1,0,195.27532)" d="M59.53321 74.72079 59.52821 74.72385 59.53321 74.72079" fill="#c99898" />
<path transform="matrix(1,0,0,-1,0,195.27532)" stroke-width=".197" stroke-linecap="round" stroke-linejoin="round" fill="none" stroke="#040000" d="M59.5337 74.72128 59.5277 74.72433" />
<path transform="matrix(1,0,0,-1,0,195.27532)" d="M59.5337 74.72128 23.3097 62.89633" fill="#c99898" />
<path transform="matrix(1,0,0,-1,0,195.27532)" stroke-width=".197" stroke-linecap="round" stroke-linejoin="round" fill="none" stroke="#040000" d="M59.5337 74.72128 59.08869 74.57626" />
<path transform="matrix(1,0,0,-1,0,195.27532)" stroke-width=".197" stroke-linecap="round" stroke-dasharray=".954,.954" stroke-linejoin="round" fill="none" stroke="#040000" d="M58.18281 74.28036 24.2078 63.18832" />
<path transform="matrix(1,0,0,-1,0,195.27532)" stroke-width=".197" stroke-linecap="round" stroke-linejoin="round" fill="none" stroke="#040000" d="M23.75501 63.04111 23.31001 62.89609" />
<path transform="matrix(1,0,0,-1,0,195.27532)" d="M23.3099 62.89609 21.4929 64.02011" fill="#c99898" />
<path transform="matrix(1,0,0,-1,0,195.27532)" stroke-width=".197" stroke-linecap="round" stroke-linejoin="round" fill="none" stroke="#040000" d="M23.31001 62.89609 22.91201 63.14206" />
<path transform="matrix(1,0,0,-1,0,195.27532)" stroke-width=".197" stroke-linecap="round" stroke-linejoin="round" fill="none" stroke="#040000" d="M21.89021 63.77402 21.49221 64.01999" />
<path transform="matrix(1,0,0,-1,0,195.27532)" d="M23.3099 85.76865 21.4929 86.89267" fill="#c99898" />
<path transform="matrix(1,0,0,-1,0,195.27532)" stroke-width=".197" stroke-linecap="round" stroke-linejoin="round" fill="none" stroke="#040000" d="M23.31001 85.76865 22.91201 86.01559" />
<path transform="matrix(1,0,0,-1,0,195.27532)" stroke-width=".197" stroke-linecap="round" stroke-linejoin="round" fill="none" stroke="#040000" d="M21.89021 86.64658 21.49221 86.89352" />
<path transform="matrix(1,0,0,-1,0,195.27532)" d="M79.1119 103.98593 77.2949 105.10995" fill="#c99898" />
<path transform="matrix(1,0,0,-1,0,195.27532)" stroke-width=".197" stroke-linecap="round" stroke-linejoin="round" fill="none" stroke="#040000" d="M79.11201 103.98593 78.71401 104.2319" />
<path transform="matrix(1,0,0,-1,0,195.27532)" stroke-width=".197" stroke-linecap="round" stroke-linejoin="round" fill="none" stroke="#040000" d="M77.6921 104.86386 77.29411 105.10983" />
<path transform="matrix(1,0,0,-1,0,195.27532)" d="M79.5902 93.67392 82.3672 94.73495" fill="#c99898" />
<path transform="matrix(1,0,0,-1,0,195.27532)" stroke-width=".197" stroke-linecap="round" stroke-linejoin="round" fill="none" stroke="#040000" d="M79.59 93.67392 80.027 93.84091" />
<path transform="matrix(1,0,0,-1,0,195.27532)" stroke-width=".197" stroke-linecap="round" stroke-dasharray=".679,.679" stroke-linejoin="round" fill="none" stroke="#040000" d="M80.66151 94.0831 81.61251 94.44614" />
<path transform="matrix(1,0,0,-1,0,195.27532)" stroke-width=".197" stroke-linecap="round" stroke-linejoin="round" fill="none" stroke="#040000" d="M81.92941 94.56796 82.3664 94.73495" />
<path transform="matrix(1,0,0,-1,0,195.27532)" d="M82.36671 94.73495 80.54971 95.85898" fill="#c99898" />
<path transform="matrix(1,0,0,-1,0,195.27532)" stroke-width=".197" stroke-linecap="round" stroke-linejoin="round" fill="none" stroke="#040000" d="M82.36671 94.73495 81.96871 94.98093" />
<path transform="matrix(1,0,0,-1,0,195.27532)" stroke-width=".197" stroke-linecap="round" stroke-linejoin="round" fill="none" stroke="#040000" d="M80.94671 95.61288 80.54871 95.85886" />
<path transform="matrix(1,0,0,-1,0,195.27532)" d="M82.36691 94.73447 81.89491 104.8945 82.36691 94.73447" fill="#c99898" />
<path transform="matrix(1,0,0,-1,0,195.27532)" stroke-width=".197" stroke-linecap="round" stroke-linejoin="round" fill="none" stroke="#040000" d="M82.36671 94.73495 82.3447 95.20297" />
<path transform="matrix(1,0,0,-1,0,195.27532)" stroke-width=".197" stroke-linecap="round" stroke-dasharray="1.026,1.026" stroke-linejoin="round" fill="none" stroke="#040000" d="M82.29731 96.22714 81.94032 103.91415" />
<path transform="matrix(1,0,0,-1,0,195.27532)" stroke-width=".197" stroke-linecap="round" stroke-linejoin="round" fill="none" stroke="#040000" d="M81.9172 104.42685 81.8952 104.89487" />
<path transform="matrix(1,0,0,-1,0,195.27532)" d="M81.89541 104.89462 80.07841 106.01865" fill="#c99898" />
<path transform="matrix(1,0,0,-1,0,195.27532)" stroke-width=".197" stroke-linecap="round" stroke-linejoin="round" fill="none" stroke="#040000" d="M81.8955 104.89462 81.49751 105.14059" />
<path transform="matrix(1,0,0,-1,0,195.27532)" stroke-width=".197" stroke-linecap="round" stroke-linejoin="round" fill="none" stroke="#040000" d="M80.47561 105.77255 80.07761 106.01852" />
<path transform="matrix(1,0,0,-1,0,195.27532)" d="M118.71171 116.91367 116.89472 118.03769" fill="#c99898" />
<path transform="matrix(1,0,0,-1,0,195.27532)" stroke-width=".197" stroke-linecap="round" stroke-linejoin="round" fill="none" stroke="#040000" d="M118.71171 116.91367 118.3137 117.15964" />
<path transform="matrix(1,0,0,-1,0,195.27532)" stroke-width=".197" stroke-linecap="round" stroke-linejoin="round" fill="none" stroke="#040000" d="M117.292 117.7916 116.89399 118.03757" />
<path transform="matrix(1,0,0,-1,0,195.27532)" d="M118.15281 104.92636 120.92881 105.67136 118.15281 104.92636" fill="#c99898" />
<path transform="matrix(1,0,0,-1,0,195.27532)" stroke-width=".197" stroke-linecap="round" stroke-linejoin="round" fill="none" stroke="#040000" d="M118.15311 104.92587 118.60511 105.04684" />
<path transform="matrix(1,0,0,-1,0,195.27532)" stroke-width=".197" stroke-linecap="round" stroke-dasharray=".646,.646" stroke-linejoin="round" fill="none" stroke="#040000" d="M119.22892 105.21494 120.16492 105.46591" />
<path transform="matrix(1,0,0,-1,0,195.27532)" stroke-width=".197" stroke-linecap="round" stroke-linejoin="round" fill="none" stroke="#040000" d="M120.47712 105.55038 120.92912 105.67136" />
<path transform="matrix(1,0,0,-1,0,195.27532)" d="M79.50851 95.46152 80.5485 95.85947 79.50851 95.46152" fill="#c99898" />
<path transform="matrix(1,0,0,-1,0,195.27532)" stroke-width=".197" stroke-linecap="round" stroke-linejoin="round" fill="none" stroke="#040000" d="M79.50881 95.46152 79.94581 95.62851" />
<path transform="matrix(1,0,0,-1,0,195.27532)" stroke-width=".197" stroke-linecap="round" stroke-linejoin="round" fill="none" stroke="#040000" d="M80.1117 95.69199 80.5487 95.85898" />
<path transform="matrix(1,0,0,-1,0,195.27532)" d="M118.23011 106.55869 119.11012 106.79575 118.23011 106.55869" fill="#c99898" />
<path transform="matrix(1,0,0,-1,0,195.27532)" stroke-width=".197" stroke-linecap="round" stroke-dasharray=".912" stroke-linejoin="round" fill="none" stroke="#040000" d="M118.23051 106.55917 119.11152 106.79514" />
<path transform="matrix(1,0,0,-1,0,195.27532)" d="M121.49561 117.82236 183.1836 137.9614" fill="#c99898" />
<path transform="matrix(1,0,0,-1,0,195.27532)" stroke-width=".197" stroke-linecap="round" stroke-linejoin="round" fill="none" stroke="#040000" d="M121.4957 117.82236 121.94071 117.96738" />
<path transform="matrix(1,0,0,-1,0,195.27532)" stroke-width=".197" stroke-linecap="round" stroke-dasharray=".927,.927" stroke-linejoin="round" fill="none" stroke="#040000" d="M122.82151 118.25546 182.29752 137.67246" />
<path transform="matrix(1,0,0,-1,0,195.27532)" stroke-width=".197" stroke-linecap="round" stroke-linejoin="round" fill="none" stroke="#040000" d="M182.7378 137.81552 183.1828 137.96054" />
<path transform="matrix(1,0,0,-1,0,195.27532)" d="M118.15281 104.9249 118.7118 116.91293 118.15281 104.9249" fill="#c99898" />
<path transform="matrix(1,0,0,-1,0,195.27532)" stroke-width=".197" stroke-linecap="round" stroke-linejoin="round" fill="none" stroke="#040000" d="M118.71171 116.91367 118.6897 116.44565" />
<path transform="matrix(1,0,0,-1,0,195.27532)" stroke-width=".197" stroke-linecap="round" stroke-dasharray="1.006,1.006" stroke-linejoin="round" fill="none" stroke="#040000" d="M118.6431 115.44101 118.1981 105.89597" />
<path transform="matrix(1,0,0,-1,0,195.27532)" stroke-width=".197" stroke-linecap="round" stroke-linejoin="round" fill="none" stroke="#040000" d="M118.1746 105.39316 118.1526 104.92514" />
<path transform="matrix(1,0,0,-1,0,195.27532)" d="M153.0683 105.56161 154.12329 116.25766" fill="#c99898" />
<path transform="matrix(1,0,0,-1,0,195.27532)" stroke-width=".197" stroke-linecap="round" stroke-linejoin="round" fill="none" stroke="#040000" d="M153.06839 105.56161 153.11438 106.02756" />
<path transform="matrix(1,0,0,-1,0,195.27532)" stroke-width=".197" stroke-linecap="round" stroke-dasharray=".891,.891" stroke-linejoin="round" fill="none" stroke="#040000" d="M153.20178 106.91513 154.03278 115.34811" />
<path transform="matrix(1,0,0,-1,0,195.27532)" stroke-width=".197" stroke-linecap="round" stroke-linejoin="round" fill="none" stroke="#040000" d="M154.077 115.7916 154.12299 116.25754" />
<path transform="matrix(1,0,0,-1,0,195.27532)" d="M151.35929 115.69882 154.12329 116.25681 151.35929 115.69882" fill="#c99898" />
<path transform="matrix(1,0,0,-1,0,195.27532)" stroke-width=".197" stroke-linecap="round" stroke-linejoin="round" fill="none" stroke="#040000" d="M154.1229 116.25742 153.66388 116.16537" />
<path transform="matrix(1,0,0,-1,0,195.27532)" stroke-width=".197" stroke-linecap="round" stroke-dasharray=".627,.627" stroke-linejoin="round" fill="none" stroke="#040000" d="M153.04901 116.04062 152.126 115.85361" />
<path transform="matrix(1,0,0,-1,0,195.27532)" stroke-width=".197" stroke-linecap="round" stroke-linejoin="round" fill="none" stroke="#040000" d="M151.819 115.7916 151.35999 115.69858" />
<path transform="matrix(1,0,0,-1,0,195.27532)" d="M81.89541 104.89462 118.71241 116.91367" fill="#c99898" />
<path transform="matrix(1,0,0,-1,0,195.27532)" stroke-width=".197" stroke-linecap="round" stroke-linejoin="round" fill="none" stroke="#040000" d="M81.8955 104.89462 82.34051 105.03964" />
<path transform="matrix(1,0,0,-1,0,195.27532)" stroke-width=".197" stroke-linecap="round" stroke-dasharray=".922,.922" stroke-linejoin="round" fill="none" stroke="#040000" d="M83.2165 105.32578 117.8285 116.62582" />
<path transform="matrix(1,0,0,-1,0,195.27532)" stroke-width=".197" stroke-linecap="round" stroke-linejoin="round" fill="none" stroke="#040000" d="M118.2667 116.76816 118.71171 116.91318" />
<path transform="matrix(1,0,0,-1,0,195.27532)" d="M62.316 76.15781 58.993 85.27084" fill="#c99898" />
<path transform="matrix(1,0,0,-1,0,195.27532)" stroke-width=".197" stroke-linecap="round" stroke-linejoin="round" fill="none" stroke="#040000" d="M62.31591 76.15781 62.15491 76.59677" />
<path transform="matrix(1,0,0,-1,0,195.27532)" stroke-width=".197" stroke-linecap="round" stroke-dasharray=".974,.974" stroke-linejoin="round" fill="none" stroke="#040000" d="M61.82221 77.5123 59.32121 84.37326" />
<path transform="matrix(1,0,0,-1,0,195.27532)" stroke-width=".197" stroke-linecap="round" stroke-linejoin="round" fill="none" stroke="#040000" d="M59.154 84.83115 58.993 85.27011" />
<path transform="matrix(1,0,0,-1,0,195.27532)" d="M58.99371 85.27109 56.37771 83.37704" fill="#c99898" />
<path transform="matrix(1,0,0,-1,0,195.27532)" stroke-width=".197" stroke-linecap="round" stroke-linejoin="round" fill="none" stroke="#040000" d="M58.99381 85.27109 58.61481 84.99606" />
<path transform="matrix(1,0,0,-1,0,195.27532)" stroke-width=".197" stroke-linecap="round" stroke-dasharray=".764,.764" stroke-linejoin="round" fill="none" stroke="#040000" d="M57.9954 84.54843 57.0664 83.87643" />
<path transform="matrix(1,0,0,-1,0,195.27532)" stroke-width=".197" stroke-linecap="round" stroke-linejoin="round" fill="none" stroke="#040000" d="M56.7569 83.65244 56.37791 83.37741" />
<path transform="matrix(1,0,0,-1,0,195.27532)" d="M23.3099 85.76865 79.1119 103.98569" fill="#c99898" />
<path transform="matrix(1,0,0,-1,0,195.27532)" stroke-width=".197" stroke-linecap="round" stroke-linejoin="round" fill="none" stroke="#040000" d="M23.31001 85.76865 23.75501 85.91367" />
<path transform="matrix(1,0,0,-1,0,195.27532)" stroke-width=".197" stroke-linecap="round" stroke-dasharray=".947,.947" stroke-linejoin="round" fill="none" stroke="#040000" d="M24.6551 86.20761 78.21709 103.69357" />
<path transform="matrix(1,0,0,-1,0,195.27532)" stroke-width=".197" stroke-linecap="round" stroke-linejoin="round" fill="none" stroke="#040000" d="M78.66711 103.84042 79.11211 103.98544" />
<path transform="matrix(1,0,0,-1,0,195.27532)" d="M79.5897 93.67441 79.1117 103.98544 79.5897 93.67441" fill="#c99898" />
<path transform="matrix(1,0,0,-1,0,195.27532)" stroke-width=".197" stroke-linecap="round" stroke-linejoin="round" fill="none" stroke="#040000" d="M79.11201 103.98593 79.13401 103.51791" />
<path transform="matrix(1,0,0,-1,0,195.27532)" stroke-width=".197" stroke-linecap="round" stroke-dasharray=".853,.853" stroke-linejoin="round" fill="none" stroke="#040000" d="M79.1731 102.66562 79.5481 94.5676" />
<path transform="matrix(1,0,0,-1,0,195.27532)" stroke-width=".197" stroke-linecap="round" stroke-linejoin="round" fill="none" stroke="#040000" d="M79.5685 94.1412 79.59051 93.67319" />
<path transform="matrix(1,0,0,-1,0,195.27532)" d="M153.0683 105.56161 151.25131 106.68564" fill="#c99898" />
<path transform="matrix(1,0,0,-1,0,195.27532)" stroke-width=".197" stroke-linecap="round" stroke-linejoin="round" fill="none" stroke="#040000" d="M153.06839 105.56161 152.67038 105.80856" />
<path transform="matrix(1,0,0,-1,0,195.27532)" stroke-width=".197" stroke-linecap="round" stroke-linejoin="round" fill="none" stroke="#040000" d="M151.6485 106.44003 151.25049 106.686" />
<path transform="matrix(1,0,0,-1,0,195.27532)" d="M62.316 76.15781 60.499 77.28183" fill="#c99898" />
<path transform="matrix(1,0,0,-1,0,195.27532)" stroke-width=".197" stroke-linecap="round" stroke-linejoin="round" fill="none" stroke="#040000" d="M62.31591 76.15781 61.91792 76.40378" />
<path transform="matrix(1,0,0,-1,0,195.27532)" stroke-width=".197" stroke-linecap="round" stroke-linejoin="round" fill="none" stroke="#040000" d="M60.89611 77.03622 60.49812 77.2822" />
<path transform="matrix(1,0,0,-1,0,195.27532)" stroke-width=".739" stroke-linecap="round" stroke-linejoin="round" fill="none" stroke="#040000" d="M110.25141 35.41171 46.05842 73.20676" />
<path transform="matrix(1,0,0,-1,0,195.27532)" stroke-width=".739" stroke-linecap="round" stroke-linejoin="round" fill="none" stroke="#040000" d="M91.47871 70.91757 136.6047 44.3486" />
<path transform="matrix(1,0,0,-1,0,195.27532)" stroke-width=".739" stroke-linecap="round" stroke-linejoin="round" fill="none" stroke="#040000" d="M153.38101 119.37167 153.513 119.67868" />
<path transform="matrix(1,0,0,-1,0,195.27532)" stroke-width=".739" stroke-linecap="round" stroke-linejoin="round" fill="none" stroke="#040000" d="M153.5126 119.67783 157.7526 129.53781" />
<path transform="matrix(1,0,0,-1,0,195.27532)" stroke-width=".739" stroke-linecap="round" stroke-linejoin="round" fill="none" stroke="#040000" d="M69.63711 129.36777 69.65611 129.92173" />
<path transform="matrix(1,0,0,-1,0,195.27532)" stroke-width=".739" stroke-linecap="round" stroke-linejoin="round" fill="none" stroke="#040000" d="M69.65591 129.92246 69.96691 139.03745" />
<path transform="matrix(1,0,0,-1,0,195.27532)" stroke-width=".739" stroke-linecap="round" stroke-linejoin="round" fill="none" stroke="#040000" d="M33.40351 133.69248 41.11552 156.89853" />
<path transform="matrix(1,0,0,-1,0,195.27532)" stroke-width=".739" stroke-linecap="round" stroke-linejoin="round" fill="none" stroke="#040000" d="M41.1159 156.89853 92.7239 150.7385" />
<path transform="matrix(1,0,0,-1,0,195.27532)" stroke-width=".739" stroke-linecap="round" stroke-linejoin="round" fill="none" stroke="#040000" d="M92.2566 139.91562 95.29861 150.43161" />
<path transform="matrix(1,0,0,-1,0,195.27532)" stroke-width=".739" stroke-linecap="round" stroke-linejoin="round" fill="none" stroke="#040000" d="M95.2983 150.43125 129.3483 146.36728" />
<path transform="matrix(1,0,0,-1,0,195.27532)" stroke-width=".739" stroke-linecap="round" stroke-linejoin="round" fill="none" stroke="#040000" d="M127.36381 133.98203 129.19379 132.90402" />
<path transform="matrix(1,0,0,-1,0,195.27532)" stroke-width=".739" stroke-linecap="round" stroke-linejoin="round" fill="none" stroke="#040000" d="M129.194 132.90439 133.75299 144.98239" />
<path transform="matrix(1,0,0,-1,0,195.27532)" stroke-width=".739" stroke-linecap="round" stroke-linejoin="round" fill="none" stroke="#040000" d="M133.75241 144.98203 131.92243 146.06003" />
<path transform="matrix(1,0,0,-1,0,195.27532)" stroke-width=".739" stroke-linecap="round" stroke-linejoin="round" fill="none" stroke="#040000" d="M190.8035 138.17246 188.97351 139.25046" />
<path transform="matrix(1,0,0,-1,0,195.27532)" stroke-width=".739" stroke-linecap="round" stroke-linejoin="round" fill="none" stroke="#040000" d="M190.8035 138.17246 183.09149 114.9664" />
<path transform="matrix(1,0,0,-1,0,195.27532)" stroke-width=".739" stroke-linecap="round" stroke-linejoin="round" fill="none" stroke="#040000" d="M183.091 114.9664 155.211 118.2944" />
<path transform="matrix(1,0,0,-1,0,195.27532)" stroke-width=".739" stroke-linecap="round" stroke-linejoin="round" fill="none" stroke="#040000" d="M155.2113 118.29453 153.38132 119.37155" />
<path transform="matrix(1,0,0,-1,0,195.27532)" stroke-width=".739" stroke-linecap="round" stroke-linejoin="round" fill="none" stroke="#040000" d="M155.2113 118.29453 155.34329 118.60056" />
<path transform="matrix(1,0,0,-1,0,195.27532)" stroke-width=".739" stroke-linecap="round" stroke-linejoin="round" fill="none" stroke="#040000" d="M157.3693 129.63925 152.82929 119.08127" />
<path transform="matrix(1,0,0,-1,0,195.27532)" stroke-width=".739" stroke-linecap="round" stroke-linejoin="round" fill="none" stroke="#040000" d="M152.82971 119.08115 152.62372 118.60312" />
<path transform="matrix(1,0,0,-1,0,195.27532)" stroke-width=".739" stroke-linecap="round" stroke-linejoin="round" fill="none" stroke="#040000" d="M152.62409 118.60312 71.46709 128.29013" />
<path transform="matrix(1,0,0,-1,0,195.27532)" stroke-width=".739" stroke-linecap="round" stroke-linejoin="round" fill="none" stroke="#040000" d="M71.46731 128.29013 69.63731 129.36814" />
<path transform="matrix(1,0,0,-1,0,195.27532)" stroke-width=".739" stroke-linecap="round" stroke-linejoin="round" fill="none" stroke="#040000" d="M71.46731 128.29013 71.48631 128.84409" />
<path transform="matrix(1,0,0,-1,0,195.27532)" stroke-width=".739" stroke-linecap="round" stroke-linejoin="round" fill="none" stroke="#040000" d="M131.92221 146.05966 188.9732 139.2496" />
<path transform="matrix(1,0,0,-1,0,195.27532)" stroke-width=".739" stroke-linecap="round" stroke-linejoin="round" fill="none" stroke="#040000" d="M68.7349 128.6163 35.23389 132.61435" />
<path transform="matrix(1,0,0,-1,0,195.27532)" stroke-width=".739" stroke-linecap="round" stroke-linejoin="round" fill="none" stroke="#040000" d="M35.23371 132.61484 33.40371 133.69284" />
<path transform="matrix(1,0,0,-1,0,195.27532)" stroke-width=".739" stroke-linecap="round" stroke-linejoin="round" fill="none" stroke="#040000" d="M42.94601 155.82089 41.116 156.8989" />
<path transform="matrix(1,0,0,-1,0,195.27532)" stroke-width=".739" stroke-linecap="round" stroke-linejoin="round" fill="none" stroke="#040000" d="M94.55421 149.66074 92.72421 150.73874" />
<path transform="matrix(1,0,0,-1,0,195.27532)" stroke-width=".739" stroke-linecap="round" stroke-linejoin="round" fill="none" stroke="#040000" d="M91.4668 138.9874 94.0868 138.83737" />
<path transform="matrix(1,0,0,-1,0,195.27532)" stroke-width=".739" stroke-linecap="round" stroke-linejoin="round" fill="none" stroke="#040000" d="M94.0868 138.83798 92.2568 139.91599" />
<path transform="matrix(1,0,0,-1,0,195.27532)" stroke-width=".739" stroke-linecap="round" stroke-linejoin="round" fill="none" stroke="#040000" d="M94.0868 138.83798 97.12881 149.35398" />
<path transform="matrix(1,0,0,-1,0,195.27532)" stroke-width=".739" stroke-linecap="round" stroke-linejoin="round" fill="none" stroke="#040000" d="M97.12861 149.3536 95.29861 150.43161" />
<path transform="matrix(1,0,0,-1,0,195.27532)" stroke-width=".739" stroke-linecap="round" stroke-linejoin="round" fill="none" stroke="#040000" d="M131.17789 145.28964 129.3479 146.36765" />
<path transform="matrix(1,0,0,-1,0,195.27532)" stroke-width=".739" stroke-linecap="round" stroke-linejoin="round" fill="none" stroke="#040000" d="M126.6804 133.37363 129.1944 132.90464" />
<path transform="matrix(1,0,0,-1,0,195.27532)" stroke-width=".739" stroke-linecap="round" stroke-linejoin="round" fill="none" stroke="#040000" d="M91.7445 139.94492 92.25649 139.91489" />
<path transform="matrix(1,0,0,-1,0,195.27532)" stroke-width=".739" stroke-linecap="round" stroke-linejoin="round" fill="none" stroke="#040000" d="M126.94001 134.06113 127.36402 133.98215" />
<path transform="matrix(1,0,0,-1,0,195.27532)" stroke-width=".739" stroke-linecap="round" stroke-linejoin="round" fill="none" stroke="#040000" d="M133.75241 144.98203 190.8034 138.17197" />
<path transform="matrix(1,0,0,-1,0,195.27532)" stroke-width=".739" stroke-linecap="round" stroke-linejoin="round" fill="none" stroke="#040000" d="M60.01591 87.15097 86.94891 71.29501" />
<path transform="matrix(1,0,0,-1,0,195.27532)" stroke-width=".739" stroke-linecap="round" stroke-linejoin="round" fill="none" stroke="#040000" d="M155.34299 118.60019 159.80799 128.98618" />
<path transform="matrix(1,0,0,-1,0,195.27532)" stroke-width=".739" stroke-linecap="round" stroke-linejoin="round" fill="none" stroke="#040000" d="M60.01591 87.15097 62.50991 87.97397" />
<path transform="matrix(1,0,0,-1,0,195.27532)" stroke-width=".739" stroke-linecap="round" stroke-linejoin="round" fill="none" stroke="#040000" d="M71.48611 128.84482 71.8521 139.55686" />
<path transform="matrix(1,0,0,-1,0,195.27532)" stroke-width=".739" stroke-linecap="round" stroke-linejoin="round" fill="none" stroke="#040000" d="M35.23371 132.61484 42.94572 155.82089" />
<path transform="matrix(1,0,0,-1,0,195.27532)" stroke-width=".739" stroke-linecap="round" stroke-linejoin="round" fill="none" stroke="#040000" d="M42.94601 155.82089 94.55401 149.66086" />
<path transform="matrix(1,0,0,-1,0,195.27532)" stroke-width=".739" stroke-linecap="round" stroke-linejoin="round" fill="none" stroke="#040000" d="M97.12861 149.3536 131.17859 145.28964" />
<path transform="matrix(1,0,0,-1,0,195.27532)" stroke-width=".739" stroke-linecap="round" stroke-linejoin="round" fill="none" stroke="#040000" d="M69.08251 138.79209 68.7345 128.62509" />
<path transform="matrix(1,0,0,-1,0,195.27532)" stroke-width=".739" stroke-linecap="round" stroke-linejoin="round" fill="none" stroke="#040000" d="M91.47871 70.91757 136.6047 44.3486" />
<path transform="matrix(1,0,0,-1,0,195.27532)" stroke-width=".739" stroke-linecap="round" stroke-linejoin="round" fill="none" stroke="#040000" d="M136.60431 44.34824 136.8443 22.04428" />
<path transform="matrix(1,0,0,-1,0,195.27532)" stroke-width=".739" stroke-linecap="round" stroke-linejoin="round" fill="none" stroke="#040000" d="M19.65371 113.20615 60.4737 89.17111" />
<path transform="matrix(1,0,0,-1,0,195.27532)" stroke-width=".739" stroke-linecap="round" stroke-linejoin="round" fill="none" stroke="#040000" d="M60.4741 89.17197 60.5561 87.32895" />
<path transform="matrix(1,0,0,-1,0,195.27532)" stroke-width=".739" stroke-linecap="round" stroke-linejoin="round" fill="none" stroke="#040000" d="M62.5104 87.97324 89.44239 72.11728" />
<path transform="matrix(1,0,0,-1,0,195.27532)" stroke-width=".739" stroke-linecap="round" stroke-linejoin="round" fill="none" stroke="#040000" d="M89.44241 72.1163 89.39541 70.23129" />
<path transform="matrix(1,0,0,-1,0,195.27532)" stroke-width=".739" stroke-linecap="round" stroke-linejoin="round" fill="none" stroke="#040000" d="M134.10999 43.52646 136.60398 44.34848" />
<path transform="matrix(1,0,0,-1,0,195.27532)" stroke-width=".739" stroke-linecap="round" stroke-linejoin="round" fill="none" stroke="#040000" d="M134.35 21.22324 136.844 22.04428" />
<path transform="matrix(1,0,0,-1,0,195.27532)" stroke-width=".739" stroke-linecap="round" stroke-linejoin="round" fill="none" stroke="#040000" d="M134.35 21.22324 112.297 34.20724" />
<path transform="matrix(1,0,0,-1,0,195.27532)" stroke-width=".739" stroke-linecap="round" stroke-linejoin="round" fill="none" stroke="#040000" d="M112.29792 34.20663 112.31791 34.49069" />
<path transform="matrix(1,0,0,-1,0,195.27532)" stroke-width=".739" stroke-linecap="round" stroke-linejoin="round" fill="none" stroke="#040000" d="M112.98042 44.13046 110.95643 45.65549" />
<path transform="matrix(1,0,0,-1,0,195.27532)" stroke-width=".739" stroke-linecap="round" stroke-linejoin="round" fill="none" stroke="#040000" d="M110.2819 35.85556 110.25089 35.41159" />
<path transform="matrix(1,0,0,-1,0,195.27532)" stroke-width=".739" stroke-linecap="round" stroke-linejoin="round" fill="none" stroke="#040000" d="M110.25141 35.41171 112.4314 36.12973" />
<path transform="matrix(1,0,0,-1,0,195.27532)" stroke-width=".739" stroke-linecap="round" stroke-linejoin="round" fill="none" stroke="#040000" d="M127.36381 133.98203 131.92279 146.06003" />
<path transform="matrix(1,0,0,-1,0,195.27532)" stroke-width=".739" stroke-linecap="round" stroke-linejoin="round" fill="none" stroke="#040000" d="M110.25141 35.41171 46.05842 73.20676" />
<path transform="matrix(1,0,0,-1,0,195.27532)" stroke-width=".739" stroke-linecap="round" stroke-linejoin="round" fill="none" stroke="#040000" d="M46.059 73.20663 45.928 73.79562" />
<path transform="matrix(1,0,0,-1,0,195.27532)" stroke-width=".739" stroke-linecap="round" stroke-linejoin="round" fill="none" stroke="#040000" d="M43.39021 85.1705 41.48721 85.28354" />
<path transform="matrix(1,0,0,-1,0,195.27532)" stroke-width=".739" stroke-linecap="round" stroke-linejoin="round" fill="none" stroke="#040000" d="M60.46891 76.8912 60.01591 87.15121" />
<path transform="matrix(1,0,0,-1,0,195.27532)" stroke-width=".739" stroke-linecap="round" stroke-linejoin="round" fill="none" stroke="#040000" d="M43.89561 74.48886 43.89761 74.47885" />
<path transform="matrix(1,0,0,-1,0,195.27532)" stroke-width=".739" stroke-linecap="round" stroke-linejoin="round" fill="none" stroke="#040000" d="M43.89771 74.4791 45.64571 75.05515" />
<path transform="matrix(1,0,0,-1,0,195.27532)" stroke-width=".739" stroke-linecap="round" stroke-linejoin="round" fill="none" stroke="#040000" d="M43.89771 74.4791 17.39971 90.08115" />
<path transform="matrix(1,0,0,-1,0,195.27532)" stroke-width=".739" stroke-linecap="round" stroke-linejoin="round" fill="none" stroke="#040000" d="M17.39941 90.08066 17.1594 112.38364" />
<path transform="matrix(1,0,0,-1,0,195.27532)" stroke-width=".739" stroke-linecap="round" stroke-linejoin="round" fill="none" stroke="#040000" d="M17.1594 112.38437 19.6534 113.20639" />
<path transform="matrix(1,0,0,-1,0,195.27532)" stroke-width=".739" stroke-linecap="round" stroke-linejoin="round" fill="none" stroke="#040000" d="M57.9798 88.35019 60.47381 89.17123" />
<path transform="matrix(1,0,0,-1,0,195.27532)" stroke-width=".739" stroke-linecap="round" stroke-linejoin="round" fill="none" stroke="#040000" d="M57.9798 88.35019 58.43981 77.93723" />
<path transform="matrix(1,0,0,-1,0,195.27532)" stroke-width=".739" stroke-linecap="round" stroke-linejoin="round" fill="none" stroke="#040000" d="M58.4394 77.93661 60.3944 78.58066" />
<path transform="matrix(1,0,0,-1,0,195.27532)" stroke-width=".739" stroke-linecap="round" stroke-linejoin="round" fill="none" stroke="#040000" d="M58.4394 77.93661 60.46841 76.89157" />
<path transform="matrix(1,0,0,-1,0,195.27532)" stroke-width=".739" stroke-linecap="round" stroke-linejoin="round" fill="none" stroke="#040000" d="M86.94811 71.29453 89.44212 72.11557" />
<path transform="matrix(1,0,0,-1,0,195.27532)" stroke-width=".739" stroke-linecap="round" stroke-linejoin="round" fill="none" stroke="#040000" d="M86.94811 71.29453 86.66311 60.02353" />
<path transform="matrix(1,0,0,-1,0,195.27532)" stroke-width=".739" stroke-linecap="round" stroke-linejoin="round" fill="none" stroke="#040000" d="M86.6632 60.02353 88.7492 60.71054" />
<path transform="matrix(1,0,0,-1,0,195.27532)" stroke-width=".739" stroke-linecap="round" stroke-linejoin="round" fill="none" stroke="#040000" d="M86.6632 60.02353 88.6952 58.67148" />
<path transform="matrix(1,0,0,-1,0,195.27532)" stroke-width=".739" stroke-linecap="round" stroke-linejoin="round" fill="none" stroke="#040000" d="M159.8086 128.98593 157.3696 129.63889" />
<path transform="matrix(1,0,0,-1,0,195.27532)" stroke-width=".739" stroke-linecap="round" stroke-linejoin="round" fill="none" stroke="#040000" d="M71.85221 139.55771 69.08221 138.7927" />
<path transform="matrix(1,0,0,-1,0,195.27532)" stroke-width=".739" stroke-linecap="round" stroke-linejoin="round" fill="none" stroke="#040000" d="M94.55421 149.66074 91.4672 138.98777" />
<path transform="matrix(1,0,0,-1,0,195.27532)" stroke-width=".739" stroke-linecap="round" stroke-linejoin="round" fill="none" stroke="#040000" d="M131.17789 145.28964 126.67991 133.37265" />
<path transform="matrix(1,0,0,-1,0,195.27532)" stroke-width=".739" stroke-linecap="round" stroke-linejoin="round" fill="none" stroke="#040000" d="M88.69561 58.67148 88.98461 70.09543" />
<path transform="matrix(1,0,0,-1,0,195.27532)" stroke-width=".739" stroke-linecap="round" stroke-linejoin="round" fill="none" stroke="#040000" d="M88.9844 70.09531 91.4784 70.91635" />
<path transform="matrix(1,0,0,-1,0,195.27532)" stroke-width=".739" stroke-linecap="round" stroke-linejoin="round" fill="none" stroke="#040000" d="M88.9844 70.09531 134.11038 43.52634" />
<path transform="matrix(1,0,0,-1,0,195.27532)" stroke-width=".739" stroke-linecap="round" stroke-linejoin="round" fill="none" stroke="#040000" d="M134.10999 43.52646 134.34998 21.22348" />
<path transform="matrix(1,0,0,-1,0,195.27532)" stroke-width=".739" stroke-linecap="round" stroke-linejoin="round" fill="none" stroke="#040000" d="M112.31751 34.49081 112.98051 44.13083" />
<path transform="matrix(1,0,0,-1,0,195.27532)" stroke-width=".739" stroke-linecap="round" stroke-linejoin="round" fill="none" stroke="#040000" d="M110.95582 45.65488 110.28181 35.85593" />
<path transform="matrix(1,0,0,-1,0,195.27532)" stroke-width=".739" stroke-linecap="round" stroke-linejoin="round" fill="none" stroke="#040000" d="M17.1594 112.38437 57.97941 88.35031" />
<path transform="matrix(1,0,0,-1,0,195.27532)" stroke-width=".739" stroke-linecap="round" stroke-linejoin="round" fill="none" stroke="#040000" d="M45.9276 73.79599 43.38961 85.17099" />
<path transform="matrix(1,0,0,-1,0,195.27532)" stroke-width=".739" stroke-linecap="round" stroke-linejoin="round" fill="none" stroke="#040000" d="M41.4876 85.28378 43.89561 74.48874" />
<path transform="matrix(1,0,0,-1,0,195.27532)" stroke-width=".739" stroke-linecap="round" stroke-linejoin="round" fill="none" stroke="#040000" d="M43.89561 74.48886 45.6446 75.06491" />
<path transform="matrix(1,0,0,-1,0,195.27532)" stroke-width=".739" stroke-linecap="round" stroke-linejoin="round" fill="none" stroke="#040000" d="M71.48611 128.84482 69.65611 129.92282" />
<path transform="matrix(1,0,0,-1,0,195.27532)" stroke-width=".739" stroke-linecap="round" stroke-linejoin="round" fill="none" stroke="#040000" d="M155.34299 118.60019 153.513 119.67819" />
<path transform="matrix(1,0,0,-1,0,195.27532)" stroke-width="1.97" stroke-linecap="butt" stroke-miterlimit="10" stroke-linejoin="miter" fill="none" stroke="#221815" d="M-5.28999-6.78165H200.798V202.28037H-5.28999Z" />
</g></svg>